<svg width="14" height="14" viewBox="0 0 14 14" fill="none" xmlns="http://www.w3.org/2000/svg">
<path d="M12.5998 1.86671H1.39998C1.02868 1.86671 0.67259 2.0142 0.410044 2.27675C0.147497 2.5393 0 2.89539 0 3.26668V12.5999C0 12.9712 0.147497 13.3273 0.410044 13.5898C0.67259 13.8523 1.02868 13.9998 1.39998 13.9998H12.5998C12.9711 13.9998 13.3272 13.8523 13.5897 13.5898C13.8523 13.3273 13.9998 12.9712 13.9998 12.5999V3.26668C13.9998 2.89539 13.8523 2.5393 13.5897 2.27675C13.3272 2.0142 12.9711 1.86671 12.5998 1.86671ZM1.39998 2.80002H12.5998C12.7236 2.80002 12.8423 2.84919 12.9298 2.93671C13.0173 3.02422 13.0665 3.14292 13.0665 3.26668V4.2H0.933318V3.26668C0.933318 3.14292 0.982484 3.02422 1.07 2.93671C1.15751 2.84919 1.27621 2.80002 1.39998 2.80002ZM12.5998 13.0665H1.39998C1.27621 13.0665 1.15751 13.0174 1.07 12.9298C0.982484 12.8423 0.933318 12.7236 0.933318 12.5999V5.13332H13.0665V12.5999C13.0665 12.7236 13.0173 12.8423 12.9298 12.9298C12.8423 13.0174 12.7236 13.0665 12.5998 13.0665Z" fill="white"/>
<path d="M3.73366 0.933318H5.60029C5.72406 0.933318 5.84276 0.884152 5.93027 0.796637C6.01779 0.709121 6.06695 0.590425 6.06695 0.466659C6.06695 0.342893 6.01779 0.224197 5.93027 0.136681C5.84276 0.0491657 5.72406 0 5.60029 0H3.73366C3.60989 0 3.4912 0.0491657 3.40368 0.136681C3.31616 0.224197 3.267 0.342893 3.267 0.466659C3.267 0.590425 3.31616 0.709121 3.40368 0.796637C3.4912 0.884152 3.60989 0.933318 3.73366 0.933318Z" fill="white"/>
<path d="M8.39885 0.933318H10.2655C10.3893 0.933318 10.5079 0.884152 10.5955 0.796637C10.683 0.709121 10.7321 0.590425 10.7321 0.466659C10.7321 0.342893 10.683 0.224197 10.5955 0.136681C10.5079 0.0491657 10.3893 0 10.2655 0H8.39885C8.27508 0 8.15639 0.0491657 8.06887 0.136681C7.98136 0.224197 7.93219 0.342893 7.93219 0.466659C7.93219 0.590425 7.98136 0.709121 8.06887 0.796637C8.15639 0.884152 8.27508 0.933318 8.39885 0.933318Z" fill="white"/>
<path d="M7.00014 7.9332C7.25787 7.9332 7.4668 7.72427 7.4668 7.46654C7.4668 7.20882 7.25787 6.99989 7.00014 6.99989C6.74241 6.99989 6.53348 7.20882 6.53348 7.46654C6.53348 7.72427 6.74241 7.9332 7.00014 7.9332Z" fill="white"/>
<path d="M3.73366 7.9332C3.99139 7.9332 4.20032 7.72427 4.20032 7.46654C4.20032 7.20882 3.99139 6.99989 3.73366 6.99989C3.47593 6.99989 3.267 7.20882 3.267 7.46654C3.267 7.72427 3.47593 7.9332 3.73366 7.9332Z" fill="white"/>
<path d="M10.2671 7.9332C10.5249 7.9332 10.7338 7.72427 10.7338 7.46654C10.7338 7.20882 10.5249 6.99989 10.2671 6.99989C10.0094 6.99989 9.80048 7.20882 9.80048 7.46654C9.80048 7.72427 10.0094 7.9332 10.2671 7.9332Z" fill="white"/>
<path d="M7.00014 11.2002C7.25787 11.2002 7.4668 10.9913 7.4668 10.7335C7.4668 10.4758 7.25787 10.2669 7.00014 10.2669C6.74241 10.2669 6.53348 10.4758 6.53348 10.7335C6.53348 10.9913 6.74241 11.2002 7.00014 11.2002Z" fill="white"/>
<path d="M3.73366 11.2002C3.99139 11.2002 4.20032 10.9913 4.20032 10.7335C4.20032 10.4758 3.99139 10.2669 3.73366 10.2669C3.47593 10.2669 3.267 10.4758 3.267 10.7335C3.267 10.9913 3.47593 11.2002 3.73366 11.2002Z" fill="white"/>
<path d="M10.2671 11.2002C10.5249 11.2002 10.7338 10.9913 10.7338 10.7335C10.7338 10.4758 10.5249 10.2669 10.2671 10.2669C10.0094 10.2669 9.80048 10.4758 9.80048 10.7335C9.80048 10.9913 10.0094 11.2002 10.2671 11.2002Z" fill="white"/>
</svg>
