<svg width="18" height="15" viewBox="0 0 18 15" fill="none" xmlns="http://www.w3.org/2000/svg">
<path fill-rule="evenodd" clip-rule="evenodd" d="M1.74646 11.4006C0.781915 9.72999 1.3542 7.59382 3.02488 6.62926L11.4822 1.74641C13.1528 0.781895 15.2891 1.35442 16.2535 3.02495C17.2181 4.69558 16.6458 6.83175 14.9751 7.79631L6.51779 12.6792C4.8472 13.6437 2.71094 13.0712 1.74646 11.4006ZM9.22906 5.39709C8.9456 5.16219 9.01681 4.9171 9.12613 4.81756C9.29992 4.65929 12.4566 2.84761 12.7336 2.73477C13.0106 2.62193 13.4867 2.5522 13.6036 2.55212C14.3971 2.5516 14.9083 2.9539 15.0415 2.90013C15.1748 2.84637 14.737 2.22349 13.7528 2.02191C12.7686 1.82032 12.0699 2.25968 12.0699 2.25968C12.0699 2.25968 11.3179 2.69387 9.93881 3.49008C8.55973 4.28629 3.42122 7.25301 3.42122 7.25301C2.10562 8.01257 1.65488 9.69486 2.41436 11.0103C3.17389 12.3259 4.8562 12.7765 6.17172 12.017C6.17172 12.017 9.58799 10.0446 10.265 9.65372C10.9421 9.26284 10.9455 8.67898 10.3418 9.02747C9.73822 9.37597 7.87289 10.475 6.27687 11.3965C4.68084 12.318 3.42007 11.2599 3.25568 11.1181C3.0913 10.9763 2.41392 10.0996 3.16919 10.507C3.92446 10.9145 4.79276 11.1146 5.57207 10.6646C6.35139 10.2147 10.0176 8.11105 10.4555 7.79426C10.8935 7.47746 9.51251 5.63199 9.22906 5.39709Z" fill="white"/>
</svg>
