<svg width="50" height="50" viewBox="0 0 50 50" fill="none" xmlns="http://www.w3.org/2000/svg">
<rect width="50" height="50" rx="25" fill="#00164E"/>
<g clip-path="url(#clip0)">
<path d="M25 32.4138C26.4913 32.4121 27.921 31.823 28.9756 30.7757C30.0301 29.7285 30.6233 28.3086 30.625 26.8276V14.7241C30.625 14.4772 30.5262 14.2404 30.3504 14.0658C30.1746 13.8912 29.9361 13.7931 29.6875 13.7931H20.3125C20.0639 13.7931 19.8254 13.8912 19.6496 14.0658C19.4738 14.2404 19.375 14.4772 19.375 14.7241V26.8276C19.3767 28.3086 19.9699 29.7285 21.0244 30.7757C22.079 31.823 23.5087 32.4121 25 32.4138ZM21.25 15.6552H28.75V26.8276C28.75 27.8153 28.3549 28.7625 27.6516 29.461C26.9484 30.1594 25.9946 30.5517 25 30.5517C24.0054 30.5517 23.0516 30.1594 22.3483 29.461C21.6451 28.7625 21.25 27.8153 21.25 26.8276V15.6552Z" fill="white"/>
<path d="M32.5 23.1035C32.2514 23.1035 32.0129 23.2015 31.8371 23.3761C31.6613 23.5508 31.5625 23.7876 31.5625 24.0345V26.8276C31.5625 28.5561 30.8711 30.2138 29.6404 31.436C28.4097 32.6582 26.7405 33.3448 25 33.3448C23.2595 33.3448 21.5903 32.6582 20.3596 31.436C19.1289 30.2138 18.4375 28.5561 18.4375 26.8276V24.0345C18.4375 23.7876 18.3387 23.5508 18.1629 23.3761C17.9871 23.2015 17.7486 23.1035 17.5 23.1035C17.2514 23.1035 17.0129 23.2015 16.8371 23.3761C16.6613 23.5508 16.5625 23.7876 16.5625 24.0345V26.8276C16.5655 28.8876 17.3316 30.8744 18.7147 32.4096C20.0978 33.9447 22.0013 34.9209 24.0625 35.152V36.1379H22.1875C21.9389 36.1379 21.7004 36.236 21.5246 36.4106C21.3488 36.5852 21.25 36.822 21.25 37.069C21.25 37.3159 21.3488 37.5527 21.5246 37.7273C21.7004 37.9019 21.9389 38 22.1875 38H27.8125C28.0611 38 28.2996 37.9019 28.4754 37.7273C28.6512 37.5527 28.75 37.3159 28.75 37.069C28.75 36.822 28.6512 36.5852 28.4754 36.4106C28.2996 36.236 28.0611 36.1379 27.8125 36.1379H25.9375V35.152C27.9987 34.9209 29.9022 33.9447 31.2853 32.4096C32.6684 30.8744 33.4345 28.8876 33.4375 26.8276V24.0345C33.4375 23.7876 33.3387 23.5508 33.1629 23.3761C32.9871 23.2015 32.7486 23.1035 32.5 23.1035Z" fill="white"/>
</g>
<defs>
<clipPath id="clip0">
<rect width="30" height="27" fill="white" transform="translate(10 11)"/>
</clipPath>
</defs>
</svg>
