<svg width="10" height="12" viewBox="0 0 10 12" fill="none" xmlns="http://www.w3.org/2000/svg">
<path d="M8.24321 12H1.21757C0.546111 12 0 11.4539 0 10.7824V1.21757C0 0.546111 0.546311 0 1.21757 0H8.24321C8.91065 0 9.45376 0.546111 9.45376 1.21757V10.7822C9.45376 11.4537 8.91065 12 8.24321 12ZM1.21757 0.40111C0.767323 0.40111 0.40111 0.767323 0.40111 1.21757V10.7822C0.40111 11.2325 0.767323 11.5987 1.21757 11.5987H8.24321C8.68944 11.5987 9.05265 11.2325 9.05265 10.7822V1.21757C9.05265 0.767323 8.68944 0.40111 8.24321 0.40111H1.21757Z" fill="white"/>
<path d="M8.01972 3.5464H1.54961C1.43891 3.5464 1.34906 3.45655 1.34906 3.34584C1.34906 3.23514 1.43891 3.14529 1.54961 3.14529H8.01992C8.13062 3.14529 8.22047 3.23514 8.22047 3.34584C8.22047 3.45655 8.13062 3.5464 8.01972 3.5464Z" fill="white"/>
<path d="M7.44994 5.06798H1.54961C1.43891 5.06798 1.34906 4.97813 1.34906 4.86742C1.34906 4.75672 1.43891 4.66687 1.54961 4.66687H7.44994C7.56065 4.66687 7.65049 4.75672 7.65049 4.86742C7.65049 4.97813 7.56065 5.06798 7.44994 5.06798Z" fill="white"/>
<path d="M6.11545 6.59706H1.54961C1.43891 6.59706 1.34906 6.50721 1.34906 6.3965C1.34906 6.28579 1.43891 6.19595 1.54961 6.19595H6.11565C6.22635 6.19595 6.3162 6.28579 6.3162 6.3965C6.3162 6.50721 6.22635 6.59706 6.11545 6.59706Z" fill="white"/>
<path d="M4.73062 8.07594H1.54961C1.43891 8.07594 1.34906 7.98609 1.34906 7.87538C1.34906 7.76468 1.43891 7.67483 1.54961 7.67483H4.73062C4.84132 7.67483 4.93117 7.76468 4.93117 7.87538C4.93117 7.98609 4.84132 8.07594 4.73062 8.07594Z" fill="white"/>
</svg>
